Coordinates
version=1
nRows=16
nColumns=22
inDegrees=yes

Units are S.I. units (second, meters, Newtons, ...)
If the header above contains a line with 'inDegrees', this indicates whether rotational values are in degrees (yes) or radians (no).

endheader
time	pelvis_tilt	pelvis_list	pelvis_rotation	pelvis_tx	pelvis_ty	pelvis_tz	hip_flexion_r	hip_adduction_r	hip_rotation_r	knee_angle_r	ankle_angle_r	subtalar_angle_r	hip_flexion_l	hip_adduction_l	hip_rotation_l	knee_angle_l	ankle_angle_l	subtalar_angle_l	lumbar_extension	lumbar_bending	lumbar_rotation
      1.71000000	     -0.14170730	      2.17691459	    134.87699606	     -0.57884775	      0.90780609	      0.79169134	    -13.68745858	     10.39567299	     12.98944853	    -15.98263022	     17.44496276	    -10.25691055	     28.29925748	     -2.67224337	     15.42280765	    -16.81377511	      7.19356316	      5.07869386	     -9.21890808	      0.51751957	      0.34039997
      1.72000000	     -0.01244304	      1.91247400	    134.35527989	     -0.58590208	      0.90628799	      0.78421689	    -13.90767045	     10.16766130	     13.22387389	    -16.37343421	     17.28395868	    -10.36219057	     28.33202516	     -2.35382193	     15.73765476	    -17.48659002	      6.93432156	      5.24837166	     -8.75105084	      0.32372181	      0.46949349
      1.73000000	      0.08757774	      1.60434587	    133.85371877	     -0.59311661	      0.90498463	      0.77655026	    -14.09274902	      9.88963219	     13.43070452	    -16.80913429	     16.97371511	    -10.40385576	     28.27435286	     -1.95899018	     16.23931683	    -18.13071010	      6.47434945	      5.27585526	     -8.23958775	      0.07830372	      0.54250736
      1.74000000	      0.16277390	      1.23841744	    133.37874706	     -0.60047736	      0.90387679	      0.76870313	    -14.22155292	      9.56225408	     13.60801772	    -17.29649038	     16.51444042	    -10.41267466	     28.17180746	     -1.48207895	     16.91953638	    -18.75089065	      5.81848666	      5.20904504	     -7.67035485	     -0.22549293	      0.56285141
      1.75000000	      0.24176037	      0.77712241	    132.96657464	     -0.60802138	      0.90285791	      0.76073498	    -14.22307778	      9.18787684	     13.64315905	    -17.85863440	     15.96607222	    -10.33401677	     28.14388907	     -0.89825288	     17.76425417	    -19.42292244	      4.99610963	      5.00637742	     -6.98701821	     -0.59311665	      0.52033711
      1.76000000	      0.22784630	      0.31703760	    132.57432597	     -0.61562724	      0.90219279	      0.75260184	    -14.23363515	      8.76577013	     13.63651957	    -18.51291412	     15.21143015	    -10.25782268	     28.05829933	     -0.24814272	     18.60480333	    -20.14273735	      4.02675226	      4.72226589	     -6.37070369	     -1.03323806	      0.41726212
      1.77000000	      0.18547142	     -0.23616780	    132.25347476	     -0.62339846	      0.90163430	      0.74429909	    -14.13627473	      8.28200552	     13.45247469	    -19.24383752	     14.36403087	    -10.02248198	     28.11063194	      0.51392695	     19.38553124	    -21.03164753	      3.14734132	      4.22738846	     -5.66714211	     -1.57514092	      0.23330328
      1.78000000	      0.04987391	     -0.77519692	    131.94382331	     -0.63119348	      0.90140457	      0.73580465	    -14.02753738	      7.76379257	     13.19554241	    -20.11474047	     13.31681070	     -9.72827645	     28.16418755	      1.30825479	     19.92448391	    -22.06430067	      2.42016604	      3.69912543	     -5.04485654	     -2.18307155	     -0.01322730
      1.79000000	     -0.17199245	     -1.29495782	    131.63927485	     -0.63900070	      0.90147844	      0.72708818	    -13.90793373	      7.20787323	     12.79640453	    -21.10671041	     12.07328283	     -9.31506535	     28.21462396	      2.11308877	     20.19798753	    -23.23127463	      1.96353409	      3.19342042	     -4.49923475	     -2.85775663	     -0.25272896
      1.80000000	     -0.49201768	     -1.77922390	    131.31783653	     -0.64675626	      0.90190382	      0.71817239	    -13.76467341	      6.61233957	     12.27239031	    -22.26903075	     10.61889191	     -8.79826851	     28.17071889	      2.89802729	     20.23798814	    -24.39566322	      1.76522568	      2.83910245	     -4.06510398	     -3.59215523	     -0.52194681
      1.81000000	     -0.90279826	     -2.23587932	    130.97834195	     -0.65445796	      0.90265385	      0.70910302	    -13.58092284	      5.96054564	     11.58454531	    -23.58961846	      8.97085831	     -8.19447904	     28.00129431	      3.65689540	     20.08292522	    -25.47617352	      1.81252207	      2.69200538	     -3.73009870	     -4.38329714	     -0.80702685
      1.82000000	     -1.37452090	     -2.64761567	    130.58168949	     -0.66198446	      0.90372532	      0.69992857	    -13.30950131	      5.27331156	     10.77757431	    -25.11488738	      7.08518077	     -7.47365330	     27.66046590	      4.33049431	     19.76463169	    -26.36529225	      2.08053377	      2.70891974	     -3.49959529	     -5.18921371	     -1.06632763
      1.83000000	     -1.88017074	     -3.00939678	    130.12319716	     -0.66926298	      0.90506816	      0.69075909	    -12.89843591	      4.55771271	      9.83137526	    -26.88546445	      4.99870929	     -6.73493655	     27.14620447	      4.89685595	     19.30855900	    -27.01578788	      2.48361091	      2.85535878	     -3.37142538	     -5.97798450	     -1.30017774
      1.84000000	     -2.38417446	     -3.32484455	    129.58730018	     -0.67619901	      0.90661340	      0.68166681	    -12.29480209	      3.82371479	      8.78590339	    -28.92432904	      2.72260272	     -6.03557168	     26.47626921	      5.32957998	     18.72294210	    -27.39701746	      2.98088710	      3.06556089	     -3.32525395	     -6.72011844	     -1.49707398
      1.85000000	     -2.85742068	     -3.59695873	    128.95981491	     -0.68270069	      0.90828683	      0.67273651	    -11.44855401	      3.07823007	      7.68137149	    -31.25997407	      0.27027732	     -5.51741278	     25.67894792	      5.61834096	     18.03448287	    -27.50977116	      3.50681666	      3.26572938	     -3.34734545	     -7.39227183	     -1.63130909
      1.86000000	     -3.28850836	     -3.82997029	    128.23807666	     -0.68874018	      0.91001179	      0.66399760	    -10.34611388	      2.31467239	      6.54758098	    -33.88396575	     -2.30933906	     -5.10393335	     24.77767273	      5.76568976	     17.21947824	    -27.37327165	      4.08284046	      3.44320705	     -3.42544216	     -7.98419734	     -1.74608948
